<?xml version="1.0" encoding="UTF-8" standalone="no"?>
<!DOCTYPE svg PUBLIC "-//W3C//DTD SVG 1.1//EN"
 "http://www.w3.org/Graphics/SVG/1.1/DTD/svg11.dtd">
<!-- Generated by graphviz version 2.38.0 (20140413.2041)
 -->
<!-- Title: G Pages: 1 -->
<svg width="765pt" height="878pt"
 viewBox="0.00 0.00 765.49 878.00" xmlns="http://www.w3.org/2000/svg" xmlns:xlink="http://www.w3.org/1999/xlink">
<g id="graph0" class="graph" transform="scale(1 1) rotate(0) translate(4 874)">
<title>G</title>
<polygon fill="white" stroke="none" points="-4,4 -4,-874 761.495,-874 761.495,4 -4,4"/>
<g id="clust1" class="cluster"><title>cluster_Global</title>
<path fill="none" stroke="gray" d="M20,-152C20,-152 737.495,-152 737.495,-152 743.495,-152 749.495,-158 749.495,-164 749.495,-164 749.495,-850 749.495,-850 749.495,-856 743.495,-862 737.495,-862 737.495,-862 20,-862 20,-862 14,-862 8,-856 8,-850 8,-850 8,-164 8,-164 8,-158 14,-152 20,-152"/>
<text text-anchor="middle" x="378.747" y="-849.2" font-family="Times,serif" font-size="11.00" fill="gray">Global</text>
</g>
<g id="clust2" class="cluster"><title>cluster_\PVLog</title>
<path fill="none" stroke="gray" d="M28,-160C28,-160 729.495,-160 729.495,-160 735.495,-160 741.495,-166 741.495,-172 741.495,-172 741.495,-822 741.495,-822 741.495,-828 735.495,-834 729.495,-834 729.495,-834 28,-834 28,-834 22,-834 16,-828 16,-822 16,-822 16,-172 16,-172 16,-166 22,-160 28,-160"/>
<text text-anchor="middle" x="378.747" y="-821.2" font-family="Times,serif" font-size="11.00" fill="gray">PVLog</text>
</g>
<g id="clust3" class="cluster"><title>cluster_\PVLog\Classes</title>
<path fill="none" stroke="gray" d="M36,-212C36,-212 721.495,-212 721.495,-212 727.495,-212 733.495,-218 733.495,-224 733.495,-224 733.495,-794 733.495,-794 733.495,-800 727.495,-806 721.495,-806 721.495,-806 36,-806 36,-806 30,-806 24,-800 24,-794 24,-794 24,-224 24,-224 24,-218 30,-212 36,-212"/>
<text text-anchor="middle" x="378.747" y="-793.2" font-family="Times,serif" font-size="11.00" fill="gray">Classes</text>
</g>
<g id="clust4" class="cluster"><title>cluster_\PVLog\Classes\Json</title>
<path fill="none" stroke="gray" d="M44,-220C44,-220 713.495,-220 713.495,-220 719.495,-220 725.495,-226 725.495,-232 725.495,-232 725.495,-766 725.495,-766 725.495,-772 719.495,-778 713.495,-778 713.495,-778 44,-778 44,-778 38,-778 32,-772 32,-766 32,-766 32,-232 32,-232 32,-226 38,-220 44,-220"/>
<text text-anchor="middle" x="378.747" y="-765.2" font-family="Times,serif" font-size="11.00" fill="gray">Json</text>
</g>
<!-- \\PVLog\\Classes\\Json\\TotalConsumption -->
<g id="node1" class="node"><title>\\PVLog\\Classes\\Json\\TotalConsumption</title>
<polygon fill="none" stroke="black" points="717.495,-642 592.495,-642 592.495,-606 717.495,-606 717.495,-642"/>
<text text-anchor="middle" x="654.995" y="-621.2" font-family="Courier,monospace" font-size="11.00">TotalConsumption</text>
</g>
<!-- \\PVLog\\Classes\\Json\\EnergyMeter -->
<g id="node17" class="node"><title>\\PVLog\\Classes\\Json\\EnergyMeter</title>
<polygon fill="none" stroke="black" points="493.495,-480 402.495,-480 402.495,-444 493.495,-444 493.495,-480"/>
<text text-anchor="start" x="413.995" y="-465.2" font-family="Courier,monospace" font-size="11.00">«abstract»</text>
<text text-anchor="start" x="410.495" y="-453.2" font-family="Courier,monospace" font-size="11.00">EnergyMeter</text>
</g>
<!-- \\PVLog\\Classes\\Json\\TotalConsumption&#45;&gt;\\PVLog\\Classes\\Json\\EnergyMeter -->
<g id="edge1" class="edge"><title>\\PVLog\\Classes\\Json\\TotalConsumption&#45;&gt;\\PVLog\\Classes\\Json\\EnergyMeter</title>
<path fill="none" stroke="black" d="M608.063,-605.935C602.667,-603.206 597.358,-600.216 592.495,-597 544.771,-565.439 498.147,-517.485 471.561,-488.035"/>
<polygon fill="none" stroke="black" points="473.88,-485.378 464.609,-480.249 468.658,-490.04 473.88,-485.378"/>
</g>
<!-- \\PVLog\\Classes\\Json\\BatteryOut -->
<g id="node2" class="node"><title>\\PVLog\\Classes\\Json\\BatteryOut</title>
<polygon fill="none" stroke="black" points="696.995,-534 612.995,-534 612.995,-498 696.995,-498 696.995,-534"/>
<text text-anchor="middle" x="654.995" y="-513.2" font-family="Courier,monospace" font-size="11.00">BatteryOut</text>
</g>
<!-- \\PVLog\\Classes\\Json\\BatteryOut&#45;&gt;\\PVLog\\Classes\\Json\\EnergyMeter -->
<g id="edge2" class="edge"><title>\\PVLog\\Classes\\Json\\BatteryOut&#45;&gt;\\PVLog\\Classes\\Json\\EnergyMeter</title>
<path fill="none" stroke="black" d="M612.51,-505.072C581.097,-496.798 537.664,-485.357 503.455,-476.346"/>
<polygon fill="none" stroke="black" points="504.177,-472.916 493.615,-473.754 502.394,-479.685 504.177,-472.916"/>
</g>
<!-- \\PVLog\\Classes\\Json\\Inverter -->
<g id="node3" class="node"><title>\\PVLog\\Classes\\Json\\Inverter</title>
<polygon fill="none" stroke="black" points="690.495,-480 619.495,-480 619.495,-444 690.495,-444 690.495,-480"/>
<text text-anchor="middle" x="654.995" y="-459.2" font-family="Courier,monospace" font-size="11.00">Inverter</text>
</g>
<!-- \\PVLog\\Classes\\Json\\Inverter&#45;&gt;\\PVLog\\Classes\\Json\\EnergyMeter -->
<g id="edge3" class="edge"><title>\\PVLog\\Classes\\Json\\Inverter&#45;&gt;\\PVLog\\Classes\\Json\\EnergyMeter</title>
<path fill="none" stroke="black" d="M619.219,-462C587.581,-462 540.361,-462 503.675,-462"/>
<polygon fill="none" stroke="black" points="503.629,-458.5 493.629,-462 503.629,-465.5 503.629,-458.5"/>
</g>
<!-- \\PVLog\\Classes\\Json\\Helper -->
<g id="node4" class="node"><title>\\PVLog\\Classes\\Json\\Helper</title>
<polygon fill="none" stroke="black" points="696.995,-588 612.995,-588 612.995,-552 696.995,-552 696.995,-588"/>
<text text-anchor="start" x="620.995" y="-573.2" font-family="Courier,monospace" font-size="11.00">«abstract»</text>
<text text-anchor="start" x="634.495" y="-561.2" font-family="Courier,monospace" font-size="11.00">Helper</text>
</g>
<!-- \\PVLog\\Classes\\Json\\Irradiation -->
<g id="node5" class="node"><title>\\PVLog\\Classes\\Json\\Irradiation</title>
<polygon fill="none" stroke="black" points="493.495,-372 402.495,-372 402.495,-336 493.495,-336 493.495,-372"/>
<text text-anchor="middle" x="447.995" y="-351.2" font-family="Courier,monospace" font-size="11.00">Irradiation</text>
</g>
<!-- \\PVLog\\Classes\\Json\\Set -->
<g id="node7" class="node"><title>\\PVLog\\Classes\\Json\\Set</title>
<polygon fill="none" stroke="black" points="284.995,-264 230.995,-264 230.995,-228 284.995,-228 284.995,-264"/>
<text text-anchor="middle" x="257.995" y="-243.2" font-family="Courier,monospace" font-size="11.00">Set</text>
</g>
<!-- \\PVLog\\Classes\\Json\\Irradiation&#45;&gt;\\PVLog\\Classes\\Json\\Set -->
<g id="edge4" class="edge"><title>\\PVLog\\Classes\\Json\\Irradiation&#45;&gt;\\PVLog\\Classes\\Json\\Set</title>
<path fill="none" stroke="black" d="M402.384,-339.1C393.304,-335.53 383.95,-331.448 375.495,-327 344.623,-310.758 312.257,-287.7 289.498,-270.336"/>
<polygon fill="none" stroke="black" points="291.623,-267.556 281.567,-264.22 287.348,-273.099 291.623,-267.556"/>
</g>
<!-- \\PVLog\\Classes\\Json\\Json -->
<g id="node6" class="node"><title>\\PVLog\\Classes\\Json\\Json</title>
<polygon fill="none" stroke="black" points="124,-345 40,-345 40,-309 124,-309 124,-345"/>
<text text-anchor="start" x="48" y="-330.2" font-family="Courier,monospace" font-size="11.00">«abstract»</text>
<text text-anchor="start" x="68" y="-318.2" font-family="Courier,monospace" font-size="11.00">Json</text>
</g>
<!-- \\PVLog\\Classes\\Json\\Set&#45;&gt;\\PVLog\\Classes\\Json\\Json -->
<g id="edge5" class="edge"><title>\\PVLog\\Classes\\Json\\Set&#45;&gt;\\PVLog\\Classes\\Json\\Json</title>
<path fill="none" stroke="black" d="M230.946,-258.127C204.629,-270.378 163.359,-289.59 131.086,-304.614"/>
<polygon fill="none" stroke="black" points="129.404,-301.537 121.815,-308.93 132.358,-307.883 129.404,-301.537"/>
</g>
<!-- \\ArrayAccess -->
<g id="node21" class="node"><title>\\ArrayAccess</title>
<ellipse fill="none" stroke="black" cx="82" cy="-126" rx="58.4896" ry="18"/>
<text text-anchor="middle" x="82" y="-122.3" font-family="Times,serif" font-size="14.00" fill="gray">\ArrayAccess</text>
</g>
<!-- \\PVLog\\Classes\\Json\\Set&#45;&gt;\\ArrayAccess -->
<g id="edge6" class="edge"><title>\\PVLog\\Classes\\Json\\Set&#45;&gt;\\ArrayAccess</title>
<path fill="none" stroke="black" stroke-dasharray="1,5" d="M230.946,-228.035C200.052,-206.728 148.551,-171.209 115.19,-148.2"/>
<polygon fill="none" stroke="black" points="116.928,-145.147 106.708,-142.351 112.953,-150.91 116.928,-145.147"/>
</g>
<!-- \\Countable -->
<g id="node22" class="node"><title>\\Countable</title>
<ellipse fill="none" stroke="black" cx="82" cy="-72" rx="49.2915" ry="18"/>
<text text-anchor="middle" x="82" y="-68.3" font-family="Times,serif" font-size="14.00" fill="gray">\Countable</text>
</g>
<!-- \\PVLog\\Classes\\Json\\Set&#45;&gt;\\Countable -->
<g id="edge7" class="edge"><title>\\PVLog\\Classes\\Json\\Set&#45;&gt;\\Countable</title>
<path fill="none" stroke="black" stroke-dasharray="1,5" d="M246.571,-227.959C228.39,-197.817 188.231,-136.807 140.495,-99 136.118,-95.5339 131.224,-92.3828 126.189,-89.5577"/>
<polygon fill="none" stroke="black" points="127.542,-86.3172 117.053,-84.8268 124.323,-92.5332 127.542,-86.3172"/>
</g>
<!-- \\Iterator -->
<g id="node23" class="node"><title>\\Iterator</title>
<ellipse fill="none" stroke="black" cx="82" cy="-18" rx="38.9931" ry="18"/>
<text text-anchor="middle" x="82" y="-14.3" font-family="Times,serif" font-size="14.00" fill="gray">\Iterator</text>
</g>
<!-- \\PVLog\\Classes\\Json\\Set&#45;&gt;\\Iterator -->
<g id="edge8" class="edge"><title>\\PVLog\\Classes\\Json\\Set&#45;&gt;\\Iterator</title>
<path fill="none" stroke="black" stroke-dasharray="1,5" d="M250.721,-227.744C236.663,-189.242 199.198,-98.8467 140.495,-45 135.417,-40.3422 129.393,-36.3497 123.186,-32.9751"/>
<polygon fill="none" stroke="black" points="124.569,-29.7544 114.053,-28.4676 121.471,-36.0317 124.569,-29.7544"/>
</g>
<!-- \\PVLog\\Classes\\Json\\Instance -->
<g id="node8" class="node"><title>\\PVLog\\Classes\\Json\\Instance</title>
<polygon fill="none" stroke="black" points="293.495,-345 222.495,-345 222.495,-309 293.495,-309 293.495,-345"/>
<text text-anchor="middle" x="257.995" y="-324.2" font-family="Courier,monospace" font-size="11.00">Instance</text>
</g>
<!-- \\PVLog\\Classes\\Json\\Instance&#45;&gt;\\PVLog\\Classes\\Json\\Json -->
<g id="edge9" class="edge"><title>\\PVLog\\Classes\\Json\\Instance&#45;&gt;\\PVLog\\Classes\\Json\\Json</title>
<path fill="none" stroke="black" d="M222.203,-327C197.03,-327 162.604,-327 134.286,-327"/>
<polygon fill="none" stroke="black" points="134.158,-323.5 124.158,-327 134.158,-330.5 134.158,-323.5"/>
</g>
<!-- \\PVLog\\Classes\\Json\\BatteryIn -->
<g id="node9" class="node"><title>\\PVLog\\Classes\\Json\\BatteryIn</title>
<polygon fill="none" stroke="black" points="693.495,-426 616.495,-426 616.495,-390 693.495,-390 693.495,-426"/>
<text text-anchor="middle" x="654.995" y="-405.2" font-family="Courier,monospace" font-size="11.00">BatteryIn</text>
</g>
<!-- \\PVLog\\Classes\\Json\\BatteryIn&#45;&gt;\\PVLog\\Classes\\Json\\EnergyMeter -->
<g id="edge10" class="edge"><title>\\PVLog\\Classes\\Json\\BatteryIn&#45;&gt;\\PVLog\\Classes\\Json\\EnergyMeter</title>
<path fill="none" stroke="black" d="M616.395,-417.904C584.804,-426.226 539.24,-438.228 503.623,-447.61"/>
<polygon fill="none" stroke="black" points="502.639,-444.25 493.86,-450.182 504.422,-451.019 502.639,-444.25"/>
</g>
<!-- \\PVLog\\Classes\\Json\\Temperature -->
<g id="node10" class="node"><title>\\PVLog\\Classes\\Json\\Temperature</title>
<polygon fill="none" stroke="black" points="493.495,-318 402.495,-318 402.495,-282 493.495,-282 493.495,-318"/>
<text text-anchor="middle" x="447.995" y="-297.2" font-family="Courier,monospace" font-size="11.00">Temperature</text>
</g>
<!-- \\PVLog\\Classes\\Json\\Temperature&#45;&gt;\\PVLog\\Classes\\Json\\Set -->
<g id="edge11" class="edge"><title>\\PVLog\\Classes\\Json\\Temperature&#45;&gt;\\PVLog\\Classes\\Json\\Set</title>
<path fill="none" stroke="black" d="M402.441,-287.203C369.663,-277.788 325.671,-265.152 295.083,-256.366"/>
<polygon fill="none" stroke="black" points="295.837,-252.941 285.259,-253.544 293.904,-259.669 295.837,-252.941"/>
</g>
<!-- \\PVLog\\Classes\\Json\\PowerSensor -->
<g id="node11" class="node"><title>\\PVLog\\Classes\\Json\\PowerSensor</title>
<polygon fill="none" stroke="black" points="303.495,-426 212.495,-426 212.495,-390 303.495,-390 303.495,-426"/>
<text text-anchor="start" x="223.995" y="-411.2" font-family="Courier,monospace" font-size="11.00">«abstract»</text>
<text text-anchor="start" x="220.495" y="-399.2" font-family="Courier,monospace" font-size="11.00">PowerSensor</text>
</g>
<!-- \\PVLog\\Classes\\Json\\PowerSensor&#45;&gt;\\PVLog\\Classes\\Json\\Json -->
<g id="edge12" class="edge"><title>\\PVLog\\Classes\\Json\\PowerSensor&#45;&gt;\\PVLog\\Classes\\Json\\Json</title>
<path fill="none" stroke="black" d="M217.947,-389.822C192.314,-377.889 158.604,-362.196 131.289,-349.48"/>
<polygon fill="none" stroke="black" points="132.46,-346.165 121.918,-345.117 129.506,-352.511 132.46,-346.165"/>
</g>
<!-- \\PVLog\\Classes\\Json\\GridConsumption -->
<g id="node12" class="node"><title>\\PVLog\\Classes\\Json\\GridConsumption</title>
<polygon fill="none" stroke="black" points="713.995,-372 595.995,-372 595.995,-336 713.995,-336 713.995,-372"/>
<text text-anchor="middle" x="654.995" y="-351.2" font-family="Courier,monospace" font-size="11.00">GridConsumption</text>
</g>
<!-- \\PVLog\\Classes\\Json\\GridConsumption&#45;&gt;\\PVLog\\Classes\\Json\\EnergyMeter -->
<g id="edge13" class="edge"><title>\\PVLog\\Classes\\Json\\GridConsumption&#45;&gt;\\PVLog\\Classes\\Json\\EnergyMeter</title>
<path fill="none" stroke="black" d="M609.378,-372.128C603.594,-374.9 597.832,-377.883 592.495,-381 557.954,-401.173 555.554,-415.743 520.495,-435 515,-438.018 509.097,-440.842 503.125,-443.441"/>
<polygon fill="none" stroke="black" points="501.63,-440.272 493.732,-447.334 504.31,-446.738 501.63,-440.272"/>
</g>
<!-- \\PVLog\\Classes\\Json\\Plant -->
<g id="node13" class="node"><title>\\PVLog\\Classes\\Json\\Plant</title>
<polygon fill="none" stroke="black" points="681.995,-264 627.995,-264 627.995,-228 681.995,-228 681.995,-264"/>
<text text-anchor="middle" x="654.995" y="-243.2" font-family="Courier,monospace" font-size="11.00">Plant</text>
</g>
<!-- \\PVLog\\Classes\\Json\\Plant&#45;&gt;\\PVLog\\Classes\\Json\\EnergyMeter -->
<g id="edge14" class="edge"><title>\\PVLog\\Classes\\Json\\Plant&#45;&gt;\\PVLog\\Classes\\Json\\EnergyMeter</title>
<path fill="none" stroke="black" d="M627.842,-252.723C615.841,-256.908 602.164,-263.375 592.495,-273 536.655,-328.587 577.778,-380.901 520.495,-435 515.439,-439.774 509.457,-443.726 503.14,-446.991"/>
<polygon fill="none" stroke="black" points="501.354,-443.959 493.713,-451.299 504.263,-450.325 501.354,-443.959"/>
</g>
<!-- \\PVLog\\Classes\\Json\\Strings -->
<g id="node14" class="node"><title>\\PVLog\\Classes\\Json\\Strings</title>
<polygon fill="none" stroke="black" points="479.995,-426 415.995,-426 415.995,-390 479.995,-390 479.995,-426"/>
<text text-anchor="middle" x="447.995" y="-405.2" font-family="Courier,monospace" font-size="11.00">Strings</text>
</g>
<!-- \\PVLog\\Classes\\Json\\Strings&#45;&gt;\\PVLog\\Classes\\Json\\PowerSensor -->
<g id="edge15" class="edge"><title>\\PVLog\\Classes\\Json\\Strings&#45;&gt;\\PVLog\\Classes\\Json\\PowerSensor</title>
<path fill="none" stroke="black" d="M415.95,-408C388.258,-408 347.074,-408 313.84,-408"/>
<polygon fill="none" stroke="black" points="313.805,-404.5 303.805,-408 313.805,-411.5 313.805,-404.5"/>
</g>
<!-- \\PVLog\\Classes\\Json\\BatteryChargeStatus -->
<g id="node15" class="node"><title>\\PVLog\\Classes\\Json\\BatteryChargeStatus</title>
<polygon fill="none" stroke="black" points="520.495,-264 375.495,-264 375.495,-228 520.495,-228 520.495,-264"/>
<text text-anchor="middle" x="447.995" y="-243.2" font-family="Courier,monospace" font-size="11.00">BatteryChargeStatus</text>
</g>
<!-- \\PVLog\\Classes\\Json\\BatteryChargeStatus&#45;&gt;\\PVLog\\Classes\\Json\\Set -->
<g id="edge16" class="edge"><title>\\PVLog\\Classes\\Json\\BatteryChargeStatus&#45;&gt;\\PVLog\\Classes\\Json\\Set</title>
<path fill="none" stroke="black" d="M375.384,-246C348.151,-246 318.257,-246 295.585,-246"/>
<polygon fill="none" stroke="black" points="295.395,-242.5 285.395,-246 295.395,-249.5 295.395,-242.5"/>
</g>
<!-- \\PVLog\\Classes\\Json\\FeedIn -->
<g id="node16" class="node"><title>\\PVLog\\Classes\\Json\\FeedIn</title>
<polygon fill="none" stroke="black" points="683.495,-750 626.495,-750 626.495,-714 683.495,-714 683.495,-750"/>
<text text-anchor="middle" x="654.995" y="-729.2" font-family="Courier,monospace" font-size="11.00">FeedIn</text>
</g>
<!-- \\PVLog\\Classes\\Json\\FeedIn&#45;&gt;\\PVLog\\Classes\\Json\\EnergyMeter -->
<g id="edge17" class="edge"><title>\\PVLog\\Classes\\Json\\FeedIn&#45;&gt;\\PVLog\\Classes\\Json\\EnergyMeter</title>
<path fill="none" stroke="black" d="M626.475,-724.092C615.027,-719.805 602.178,-713.588 592.495,-705 522.709,-643.108 477.355,-538.876 458.69,-489.511"/>
<polygon fill="none" stroke="black" points="461.968,-488.283 455.213,-480.121 455.404,-490.714 461.968,-488.283"/>
</g>
<!-- \\PVLog\\Classes\\Json\\EnergyMeter&#45;&gt;\\PVLog\\Classes\\Json\\PowerSensor -->
<g id="edge18" class="edge"><title>\\PVLog\\Classes\\Json\\EnergyMeter&#45;&gt;\\PVLog\\Classes\\Json\\PowerSensor</title>
<path fill="none" stroke="black" d="M402.441,-449.203C375.731,-441.53 341.573,-431.719 313.291,-423.596"/>
<polygon fill="none" stroke="black" points="314.131,-420.196 303.554,-420.799 312.199,-426.924 314.131,-420.196"/>
</g>
<!-- \\PVLog\\Classes\\Json\\Properties -->
<g id="node18" class="node"><title>\\PVLog\\Classes\\Json\\Properties</title>
<polygon fill="none" stroke="black" points="696.995,-318 612.995,-318 612.995,-282 696.995,-282 696.995,-318"/>
<text text-anchor="start" x="620.995" y="-303.2" font-family="Courier,monospace" font-size="11.00">«abstract»</text>
<text text-anchor="start" x="620.995" y="-291.2" font-family="Courier,monospace" font-size="11.00">Properties</text>
</g>
<!-- \\PVLog\\Classes\\Json\\SelfConsumption -->
<g id="node19" class="node"><title>\\PVLog\\Classes\\Json\\SelfConsumption</title>
<polygon fill="none" stroke="black" points="713.995,-696 595.995,-696 595.995,-660 713.995,-660 713.995,-696"/>
<text text-anchor="middle" x="654.995" y="-675.2" font-family="Courier,monospace" font-size="11.00">SelfConsumption</text>
</g>
<!-- \\PVLog\\Classes\\Json\\SelfConsumption&#45;&gt;\\PVLog\\Classes\\Json\\EnergyMeter -->
<g id="edge19" class="edge"><title>\\PVLog\\Classes\\Json\\SelfConsumption&#45;&gt;\\PVLog\\Classes\\Json\\EnergyMeter</title>
<path fill="none" stroke="black" d="M605.926,-659.83C601.188,-657.189 596.616,-654.248 592.495,-651 533.785,-604.722 486.208,-529.094 463.478,-488.973"/>
<polygon fill="none" stroke="black" points="466.425,-487.071 458.497,-480.042 460.311,-490.48 466.425,-487.071"/>
</g>
<!-- \\PVLog\\PVLog -->
<g id="node20" class="node"><title>\\PVLog\\PVLog</title>
<polygon fill="none" stroke="black" points="696.995,-204 612.995,-204 612.995,-168 696.995,-168 696.995,-204"/>
<text text-anchor="start" x="620.995" y="-189.2" font-family="Courier,monospace" font-size="11.00">«abstract»</text>
<text text-anchor="start" x="637.995" y="-177.2" font-family="Courier,monospace" font-size="11.00">PVLog</text>
</g>
</g>
</svg>
