<?xml version="1.0" encoding="UTF-8" standalone="no"?>
<!DOCTYPE svg PUBLIC "-//W3C//DTD SVG 1.1//EN"
 "http://www.w3.org/Graphics/SVG/1.1/DTD/svg11.dtd">
<!-- Generated by graphviz version 2.26.3 (20100126.1600)
 -->
<!-- Title: G Pages: 1 -->
<svg width="730pt" height="778pt"
 viewBox="0.00 0.00 730.00 778.00" xmlns="http://www.w3.org/2000/svg" xmlns:xlink="http://www.w3.org/1999/xlink">
<g id="graph1" class="graph" transform="scale(1 1) rotate(0) translate(4 774)">
<title>G</title>
<polygon fill="white" stroke="white" points="-4,5 -4,-774 727,-774 727,5 -4,5"/>
<g id="graph2" class="cluster"><title>cluster_Global</title>
<polyline fill="none" stroke="gray" points="20,-152 702,-152 "/>
<path fill="none" stroke="gray" d="M702,-152C708,-152 714,-158 714,-164"/>
<polyline fill="none" stroke="gray" points="714,-164 714,-750 "/>
<path fill="none" stroke="gray" d="M714,-750C714,-756 708,-762 702,-762"/>
<polyline fill="none" stroke="gray" points="702,-762 20,-762 "/>
<path fill="none" stroke="gray" d="M20,-762C14,-762 8,-756 8,-750"/>
<polyline fill="none" stroke="gray" points="8,-750 8,-164 "/>
<path fill="none" stroke="gray" d="M8,-164C8,-158 14,-152 20,-152"/>
<text text-anchor="middle" x="361" y="-748.1" font-family="Times Roman,serif" font-size="11.00" fill="gray">Global</text>
</g>
<g id="graph3" class="cluster"><title>cluster_\PVLog</title>
<polyline fill="none" stroke="gray" points="28,-160 694,-160 "/>
<path fill="none" stroke="gray" d="M694,-160C700,-160 706,-166 706,-172"/>
<polyline fill="none" stroke="gray" points="706,-172 706,-720 "/>
<path fill="none" stroke="gray" d="M706,-720C706,-726 700,-732 694,-732"/>
<polyline fill="none" stroke="gray" points="694,-732 28,-732 "/>
<path fill="none" stroke="gray" d="M28,-732C22,-732 16,-726 16,-720"/>
<polyline fill="none" stroke="gray" points="16,-720 16,-172 "/>
<path fill="none" stroke="gray" d="M16,-172C16,-166 22,-160 28,-160"/>
<text text-anchor="middle" x="361" y="-718.1" font-family="Times Roman,serif" font-size="11.00" fill="gray">PVLog</text>
</g>
<g id="graph4" class="cluster"><title>cluster_\PVLog\Classes</title>
<polyline fill="none" stroke="gray" points="36,-212 686,-212 "/>
<path fill="none" stroke="gray" d="M686,-212C692,-212 698,-218 698,-224"/>
<polyline fill="none" stroke="gray" points="698,-224 698,-690 "/>
<path fill="none" stroke="gray" d="M698,-690C698,-696 692,-702 686,-702"/>
<polyline fill="none" stroke="gray" points="686,-702 36,-702 "/>
<path fill="none" stroke="gray" d="M36,-702C30,-702 24,-696 24,-690"/>
<polyline fill="none" stroke="gray" points="24,-690 24,-224 "/>
<path fill="none" stroke="gray" d="M24,-224C24,-218 30,-212 36,-212"/>
<text text-anchor="middle" x="361" y="-688.1" font-family="Times Roman,serif" font-size="11.00" fill="gray">Classes</text>
</g>
<g id="graph5" class="cluster"><title>cluster_\PVLog\Classes\Json</title>
<polyline fill="none" stroke="gray" points="44,-220 678,-220 "/>
<path fill="none" stroke="gray" d="M678,-220C684,-220 690,-226 690,-232"/>
<polyline fill="none" stroke="gray" points="690,-232 690,-660 "/>
<path fill="none" stroke="gray" d="M690,-660C690,-666 684,-672 678,-672"/>
<polyline fill="none" stroke="gray" points="678,-672 44,-672 "/>
<path fill="none" stroke="gray" d="M44,-672C38,-672 32,-666 32,-660"/>
<polyline fill="none" stroke="gray" points="32,-660 32,-232 "/>
<path fill="none" stroke="gray" d="M32,-232C32,-226 38,-220 44,-220"/>
<text text-anchor="middle" x="361" y="-658.1" font-family="Times Roman,serif" font-size="11.00" fill="gray">Json</text>
</g>
<!-- \\PVLog\\Classes\\Json\\SelfConsumption -->
<g id="node5" class="node"><title>\\PVLog\\Classes\\Json\\SelfConsumption</title>
<polygon fill="none" stroke="black" points="678,-426 560,-426 560,-390 678,-390 678,-426"/>
<text text-anchor="middle" x="619" y="-405.1" font-family="Courier,monospace" font-size="11.00">SelfConsumption</text>
</g>
<!-- \\PVLog\\Classes\\Json\\EnergyMeter -->
<g id="node9" class="node"><title>\\PVLog\\Classes\\Json\\EnergyMeter</title>
<polygon fill="none" stroke="black" points="484,-426 392,-426 392,-390 484,-390 484,-426"/>
<text text-anchor="start" x="404" y="-413.433" font-family="Courier,monospace" font-size="11.00">«abstract»</text>
<text text-anchor="start" x="400.5" y="-400.233" font-family="Courier,monospace" font-size="11.00">EnergyMeter</text>
</g>
<!-- \\PVLog\\Classes\\Json\\SelfConsumption&#45;&gt;\\PVLog\\Classes\\Json\\EnergyMeter -->
<g id="edge6" class="edge"><title>\\PVLog\\Classes\\Json\\SelfConsumption&#45;&gt;\\PVLog\\Classes\\Json\\EnergyMeter</title>
<path fill="none" stroke="black" d="M559.734,-408C538.742,-408 515.196,-408 494.446,-408"/>
<polygon fill="none" stroke="black" points="494.194,-404.5 484.194,-408 494.194,-411.5 494.194,-404.5"/>
</g>
<!-- \\PVLog\\Classes\\Json\\GridConsumption -->
<g id="node6" class="node"><title>\\PVLog\\Classes\\Json\\GridConsumption</title>
<polygon fill="none" stroke="black" points="678,-372 560,-372 560,-336 678,-336 678,-372"/>
<text text-anchor="middle" x="619" y="-351.1" font-family="Courier,monospace" font-size="11.00">GridConsumption</text>
</g>
<!-- \\PVLog\\Classes\\Json\\GridConsumption&#45;&gt;\\PVLog\\Classes\\Json\\EnergyMeter -->
<g id="edge8" class="edge"><title>\\PVLog\\Classes\\Json\\GridConsumption&#45;&gt;\\PVLog\\Classes\\Json\\EnergyMeter</title>
<path fill="none" stroke="black" d="M559.734,-371.682C538.551,-378.001 514.766,-385.098 493.878,-391.329"/>
<polygon fill="none" stroke="black" points="492.776,-388.006 484.194,-394.218 494.777,-394.713 492.776,-388.006"/>
</g>
<!-- \\PVLog\\Classes\\Json\\Instance -->
<g id="node7" class="node"><title>\\PVLog\\Classes\\Json\\Instance</title>
<polygon fill="none" stroke="black" points="309,-318 239,-318 239,-282 309,-282 309,-318"/>
<text text-anchor="middle" x="274" y="-297.1" font-family="Courier,monospace" font-size="11.00">Instance</text>
</g>
<!-- \\PVLog\\Classes\\Json\\Json -->
<g id="node20" class="node"><title>\\PVLog\\Classes\\Json\\Json</title>
<polygon fill="none" stroke="black" points="125,-318 41,-318 41,-282 125,-282 125,-318"/>
<text text-anchor="start" x="49" y="-305.433" font-family="Courier,monospace" font-size="11.00">«abstract»</text>
<text text-anchor="start" x="69" y="-292.233" font-family="Courier,monospace" font-size="11.00">Json</text>
</g>
<!-- \\PVLog\\Classes\\Json\\Instance&#45;&gt;\\PVLog\\Classes\\Json\\Json -->
<g id="edge10" class="edge"><title>\\PVLog\\Classes\\Json\\Instance&#45;&gt;\\PVLog\\Classes\\Json\\Json</title>
<path fill="none" stroke="black" d="M238.074,-300C209.309,-300 168.537,-300 136.019,-300"/>
<polygon fill="none" stroke="black" points="135.777,-296.5 125.777,-300 135.777,-303.5 135.777,-296.5"/>
</g>
<!-- \\PVLog\\Classes\\Json\\Helper -->
<g id="node8" class="node"><title>\\PVLog\\Classes\\Json\\Helper</title>
<polygon fill="none" stroke="black" points="661,-534 577,-534 577,-498 661,-498 661,-534"/>
<text text-anchor="start" x="585" y="-521.433" font-family="Courier,monospace" font-size="11.00">«abstract»</text>
<text text-anchor="start" x="598.5" y="-508.233" font-family="Courier,monospace" font-size="11.00">Helper</text>
</g>
<!-- \\PVLog\\Classes\\Json\\PowerSensor -->
<g id="node13" class="node"><title>\\PVLog\\Classes\\Json\\PowerSensor</title>
<polygon fill="none" stroke="black" points="320,-372 228,-372 228,-336 320,-336 320,-372"/>
<text text-anchor="start" x="240" y="-359.433" font-family="Courier,monospace" font-size="11.00">«abstract»</text>
<text text-anchor="start" x="236.5" y="-346.233" font-family="Courier,monospace" font-size="11.00">PowerSensor</text>
</g>
<!-- \\PVLog\\Classes\\Json\\EnergyMeter&#45;&gt;\\PVLog\\Classes\\Json\\PowerSensor -->
<g id="edge12" class="edge"><title>\\PVLog\\Classes\\Json\\EnergyMeter&#45;&gt;\\PVLog\\Classes\\Json\\PowerSensor</title>
<path fill="none" stroke="black" d="M391.88,-392.814C372.584,-386.461 349.987,-379.02 329.767,-372.362"/>
<polygon fill="none" stroke="black" points="330.65,-368.968 320.057,-369.165 328.461,-375.617 330.65,-368.968"/>
</g>
<!-- \\PVLog\\Classes\\Json\\Properties -->
<g id="node10" class="node"><title>\\PVLog\\Classes\\Json\\Properties</title>
<polygon fill="none" stroke="black" points="661,-480 577,-480 577,-444 661,-444 661,-480"/>
<text text-anchor="start" x="585" y="-467.433" font-family="Courier,monospace" font-size="11.00">«abstract»</text>
<text text-anchor="start" x="585" y="-454.233" font-family="Courier,monospace" font-size="11.00">Properties</text>
</g>
<!-- \\PVLog\\Classes\\Json\\Temperature -->
<g id="node11" class="node"><title>\\PVLog\\Classes\\Json\\Temperature</title>
<polygon fill="none" stroke="black" points="483,-318 393,-318 393,-282 483,-282 483,-318"/>
<text text-anchor="middle" x="438" y="-297.1" font-family="Courier,monospace" font-size="11.00">Temperature</text>
</g>
<!-- \\PVLog\\Classes\\Json\\Set -->
<g id="node16" class="node"><title>\\PVLog\\Classes\\Json\\Set</title>
<polygon fill="none" stroke="black" points="301,-264 247,-264 247,-228 301,-228 301,-264"/>
<text text-anchor="middle" x="274" y="-243.1" font-family="Courier,monospace" font-size="11.00">Set</text>
</g>
<!-- \\PVLog\\Classes\\Json\\Temperature&#45;&gt;\\PVLog\\Classes\\Json\\Set -->
<g id="edge14" class="edge"><title>\\PVLog\\Classes\\Json\\Temperature&#45;&gt;\\PVLog\\Classes\\Json\\Set</title>
<path fill="none" stroke="black" d="M392.317,-284.958C366.774,-276.548 335.34,-266.197 311.293,-258.28"/>
<polygon fill="none" stroke="black" points="312.072,-254.851 301.479,-255.048 309.882,-261.5 312.072,-254.851"/>
</g>
<!-- \\PVLog\\Classes\\Json\\Inverter -->
<g id="node12" class="node"><title>\\PVLog\\Classes\\Json\\Inverter</title>
<polygon fill="none" stroke="black" points="654,-318 584,-318 584,-282 654,-282 654,-318"/>
<text text-anchor="middle" x="619" y="-297.1" font-family="Courier,monospace" font-size="11.00">Inverter</text>
</g>
<!-- \\PVLog\\Classes\\Json\\Inverter&#45;&gt;\\PVLog\\Classes\\Json\\EnergyMeter -->
<g id="edge16" class="edge"><title>\\PVLog\\Classes\\Json\\Inverter&#45;&gt;\\PVLog\\Classes\\Json\\EnergyMeter</title>
<path fill="none" stroke="black" d="M583.288,-313.553C574.179,-317.48 564.551,-322.057 556,-327 521.371,-347.021 517.301,-358.841 484,-381 482.323,-382.116 480.599,-383.237 478.848,-384.354"/>
<polygon fill="none" stroke="black" points="476.613,-381.622 469.962,-389.869 480.304,-387.57 476.613,-381.622"/>
</g>
<!-- \\PVLog\\Classes\\Json\\PowerSensor&#45;&gt;\\PVLog\\Classes\\Json\\Json -->
<g id="edge18" class="edge"><title>\\PVLog\\Classes\\Json\\PowerSensor&#45;&gt;\\PVLog\\Classes\\Json\\Json</title>
<path fill="none" stroke="black" d="M227.764,-340.928C199.914,-333.054 164.366,-323.004 135.466,-314.833"/>
<polygon fill="none" stroke="black" points="136.12,-311.381 125.545,-312.028 134.215,-318.117 136.12,-311.381"/>
</g>
<!-- \\PVLog\\Classes\\Json\\Plant -->
<g id="node14" class="node"><title>\\PVLog\\Classes\\Json\\Plant</title>
<polygon fill="none" stroke="black" points="646,-264 592,-264 592,-228 646,-228 646,-264"/>
<text text-anchor="middle" x="619" y="-243.1" font-family="Courier,monospace" font-size="11.00">Plant</text>
</g>
<!-- \\PVLog\\Classes\\Json\\Plant&#45;&gt;\\PVLog\\Classes\\Json\\EnergyMeter -->
<g id="edge20" class="edge"><title>\\PVLog\\Classes\\Json\\Plant&#45;&gt;\\PVLog\\Classes\\Json\\EnergyMeter</title>
<path fill="none" stroke="black" d="M591.979,-253.699C580.063,-258.022 566.429,-264.325 556,-273 511.649,-309.892 525.943,-341.392 484,-381 483.053,-381.894 482.072,-382.771 481.062,-383.631"/>
<polygon fill="none" stroke="black" points="478.716,-381.019 472.882,-389.863 482.958,-386.587 478.716,-381.019"/>
</g>
<!-- \\PVLog\\Classes\\Json\\Irradiation -->
<g id="node15" class="node"><title>\\PVLog\\Classes\\Json\\Irradiation</title>
<polygon fill="none" stroke="black" points="483,-264 393,-264 393,-228 483,-228 483,-264"/>
<text text-anchor="middle" x="438" y="-243.1" font-family="Courier,monospace" font-size="11.00">Irradiation</text>
</g>
<!-- \\PVLog\\Classes\\Json\\Irradiation&#45;&gt;\\PVLog\\Classes\\Json\\Set -->
<g id="edge22" class="edge"><title>\\PVLog\\Classes\\Json\\Irradiation&#45;&gt;\\PVLog\\Classes\\Json\\Set</title>
<path fill="none" stroke="black" d="M392.317,-246C366.888,-246 335.621,-246 311.616,-246"/>
<polygon fill="none" stroke="black" points="311.479,-242.5 301.479,-246 311.479,-249.5 311.479,-242.5"/>
</g>
<!-- \\PVLog\\Classes\\Json\\Set&#45;&gt;\\PVLog\\Classes\\Json\\Json -->
<g id="edge24" class="edge"><title>\\PVLog\\Classes\\Json\\Set&#45;&gt;\\PVLog\\Classes\\Json\\Json</title>
<path fill="none" stroke="black" d="M246.634,-253.737C217.783,-261.894 171.619,-274.945 135.669,-285.109"/>
<polygon fill="none" stroke="black" points="134.494,-281.804 125.823,-287.893 136.398,-288.54 134.494,-281.804"/>
</g>
<!-- \\ArrayAccess -->
<g id="node33" class="node"><title>\\ArrayAccess</title>
<ellipse fill="none" stroke="black" cx="83" cy="-126" rx="71.7694" ry="18"/>
<text text-anchor="middle" x="83" y="-121.9" font-family="Times Roman,serif" font-size="14.00" fill="gray">\ArrayAccess</text>
</g>
<!-- \\PVLog\\Classes\\Json\\Set&#45;&gt;\\ArrayAccess -->
<g id="edge26" class="edge"><title>\\PVLog\\Classes\\Json\\Set&#45;&gt;\\ArrayAccess</title>
<path fill="none" stroke="black" stroke-dasharray="1,5" d="M246.634,-228.807C212.829,-207.568 155.257,-171.397 118.195,-148.112"/>
<polygon fill="none" stroke="black" points="120.029,-145.131 109.699,-142.774 116.305,-151.058 120.029,-145.131"/>
</g>
<!-- \\Countable -->
<g id="node35" class="node"><title>\\Countable</title>
<ellipse fill="none" stroke="black" cx="83" cy="-72" rx="63.9292" ry="18"/>
<text text-anchor="middle" x="83" y="-67.9" font-family="Times Roman,serif" font-size="14.00" fill="gray">\Countable</text>
</g>
<!-- \\PVLog\\Classes\\Json\\Set&#45;&gt;\\Countable -->
<g id="edge28" class="edge"><title>\\PVLog\\Classes\\Json\\Set&#45;&gt;\\Countable</title>
<path fill="none" stroke="black" stroke-dasharray="1,5" d="M263.725,-227.516C245.729,-196.721 205.653,-134.773 156,-99 150.549,-95.0728 144.462,-91.6526 138.191,-88.6906"/>
<polygon fill="none" stroke="black" points="139.493,-85.44 128.926,-84.6731 136.708,-91.8623 139.493,-85.44"/>
</g>
<!-- \\Iterator -->
<g id="node37" class="node"><title>\\Iterator</title>
<ellipse fill="none" stroke="black" cx="83" cy="-18" rx="50.9221" ry="18"/>
<text text-anchor="middle" x="83" y="-13.9" font-family="Times Roman,serif" font-size="14.00" fill="gray">\Iterator</text>
</g>
<!-- \\PVLog\\Classes\\Json\\Set&#45;&gt;\\Iterator -->
<g id="edge30" class="edge"><title>\\PVLog\\Classes\\Json\\Set&#45;&gt;\\Iterator</title>
<path fill="none" stroke="black" stroke-dasharray="1,5" d="M268.136,-227.939C254.61,-189.012 217.584,-96.5669 156,-45 149.881,-39.8763 142.7,-35.6796 135.272,-32.2549"/>
<polygon fill="none" stroke="black" points="136.371,-28.9215 125.793,-28.3182 133.686,-35.3862 136.371,-28.9215"/>
</g>
<!-- \\PVLog\\Classes\\Json\\FeedIn -->
<g id="node17" class="node"><title>\\PVLog\\Classes\\Json\\FeedIn</title>
<polygon fill="none" stroke="black" points="647,-642 591,-642 591,-606 647,-606 647,-642"/>
<text text-anchor="middle" x="619" y="-621.1" font-family="Courier,monospace" font-size="11.00">FeedIn</text>
</g>
<!-- \\PVLog\\Classes\\Json\\FeedIn&#45;&gt;\\PVLog\\Classes\\Json\\EnergyMeter -->
<g id="edge32" class="edge"><title>\\PVLog\\Classes\\Json\\FeedIn&#45;&gt;\\PVLog\\Classes\\Json\\EnergyMeter</title>
<path fill="none" stroke="black" d="M590.278,-615.868C578.73,-611.591 565.847,-605.443 556,-597 502.939,-551.505 465.996,-476.078 448.852,-435.636"/>
<polygon fill="none" stroke="black" points="451.982,-434.047 444.922,-426.147 445.515,-436.725 451.982,-434.047"/>
</g>
<!-- \\PVLog\\Classes\\Json\\TotalConsumption -->
<g id="node18" class="node"><title>\\PVLog\\Classes\\Json\\TotalConsumption</title>
<polygon fill="none" stroke="black" points="681,-588 557,-588 557,-552 681,-552 681,-588"/>
<text text-anchor="middle" x="619" y="-567.1" font-family="Courier,monospace" font-size="11.00">TotalConsumption</text>
</g>
<!-- \\PVLog\\Classes\\Json\\TotalConsumption&#45;&gt;\\PVLog\\Classes\\Json\\EnergyMeter -->
<g id="edge34" class="edge"><title>\\PVLog\\Classes\\Json\\TotalConsumption&#45;&gt;\\PVLog\\Classes\\Json\\EnergyMeter</title>
<path fill="none" stroke="black" d="M570.636,-551.973C565.51,-549.281 560.523,-546.289 556,-543 513.837,-512.343 476.34,-464.023 455.448,-434.27"/>
<polygon fill="none" stroke="black" points="458.323,-432.273 449.758,-426.036 452.564,-436.253 458.323,-432.273"/>
</g>
<!-- \\PVLog\\Classes\\Json\\Strings -->
<g id="node19" class="node"><title>\\PVLog\\Classes\\Json\\Strings</title>
<polygon fill="none" stroke="black" points="470,-372 406,-372 406,-336 470,-336 470,-372"/>
<text text-anchor="middle" x="438" y="-351.1" font-family="Courier,monospace" font-size="11.00">Strings</text>
</g>
<!-- \\PVLog\\Classes\\Json\\Strings&#45;&gt;\\PVLog\\Classes\\Json\\PowerSensor -->
<g id="edge36" class="edge"><title>\\PVLog\\Classes\\Json\\Strings&#45;&gt;\\PVLog\\Classes\\Json\\PowerSensor</title>
<path fill="none" stroke="black" d="M405.99,-354C384.524,-354 355.669,-354 330.412,-354"/>
<polygon fill="none" stroke="black" points="330.207,-350.5 320.207,-354 330.207,-357.5 330.207,-350.5"/>
</g>
<!-- \\PVLog\\PVLog -->
<g id="node21" class="node"><title>\\PVLog\\PVLog</title>
<polygon fill="none" stroke="black" points="661,-204 577,-204 577,-168 661,-168 661,-204"/>
<text text-anchor="start" x="585" y="-191.433" font-family="Courier,monospace" font-size="11.00">«abstract»</text>
<text text-anchor="start" x="602" y="-178.233" font-family="Courier,monospace" font-size="11.00">PVLog</text>
</g>
</g>
</svg>
